<svg xmlns="http://www.w3.org/2000/svg" width="24" height="24" viewBox="0 0 24 24" fill="none">
    <g clip-path="url(#clip0_23_4797)">
        <path
            d="M10.3452 22.6405C10.3452 22.9525 10.2675 23.2575 10.122 23.5169C9.97651 23.7764 9.76971 23.9786 9.52776 24.098C9.28581 24.2174 9.01957 24.2486 8.76271 24.1878C8.50586 24.1269 8.26992 23.9766 8.08474 23.756C7.89955 23.5354 7.77344 23.2543 7.72235 22.9482C7.67126 22.6422 7.69748 22.325 7.7977 22.0367C7.89792 21.7484 8.06764 21.5021 8.28539 21.3287C8.50314 21.1554 8.75915 21.0628 9.02104 21.0628C9.37222 21.0628 9.70901 21.229 9.95734 21.5249C10.2057 21.8208 10.3452 22.222 10.3452 22.6405ZM17.6279 21.0628C17.366 21.0628 17.11 21.1554 16.8922 21.3287C16.6745 21.5021 16.5048 21.7484 16.4045 22.0367C16.3043 22.325 16.2781 22.6422 16.3292 22.9482C16.3803 23.2543 16.5064 23.5354 16.6916 23.756C16.8768 23.9766 17.1127 24.1269 17.3696 24.1878C17.6264 24.2486 17.8926 24.2174 18.1346 24.098C18.3766 23.9786 18.5834 23.7764 18.7288 23.5169C18.8743 23.2575 18.952 22.9525 18.952 22.6405C18.952 22.222 18.8125 21.8208 18.5642 21.5249C18.3159 21.229 17.9791 21.0628 17.6279 21.0628ZM21.5763 8.65286L19.4543 17.7518C19.3377 18.2488 19.0882 18.687 18.7436 18.9998C18.3991 19.3126 17.9783 19.483 17.5451 19.4852H9.36531C8.93086 19.485 8.50839 19.3154 8.16234 19.0025C7.81629 18.6895 7.56564 18.2503 7.44863 17.7518L4.54548 5.28661H3.06246C2.88686 5.28661 2.71847 5.2035 2.5943 5.05557C2.47014 4.90764 2.40039 4.707 2.40039 4.4978C2.40039 4.28859 2.47014 4.08795 2.5943 3.94002C2.71847 3.79209 2.88686 3.70898 3.06246 3.70898H5.04865C5.19339 3.70895 5.33416 3.76544 5.4494 3.86979C5.56464 3.97414 5.64799 4.12062 5.68671 4.28679L6.47126 7.65304H20.9382C21.0403 7.65302 21.141 7.68111 21.2324 7.73512C21.3238 7.78914 21.4036 7.86761 21.4653 7.96441C21.5271 8.06121 21.5693 8.17372 21.5885 8.29315C21.6078 8.41258 21.6036 8.53568 21.5763 8.65286ZM20.0668 9.23066H6.83953L8.72725 17.3298C8.76596 17.496 8.84932 17.6424 8.96456 17.7468C9.0798 17.8511 9.22057 17.9076 9.36531 17.9076H17.5451C17.6899 17.9076 17.8306 17.8511 17.9459 17.7468C18.0611 17.6424 18.1445 17.496 18.1832 17.3298L20.0668 9.23066Z"
            fill="#131313" />
    </g>
    <defs>
        <clipPath id="clip0_23_4797">
            <rect width="24" height="24" fill="white" />
        </clipPath>
    </defs>
</svg>