<svg xmlns="http://www.w3.org/2000/svg" width="20" height="26" viewBox="0 0 20 26" fill="none">
    <path
        d="M19.375 11.8691C19.2586 8.02129 18.9892 4.17681 18.982 0.325835C18.982 0.285416 18.9732 0.250986 18.961 0.219216C18.968 0.125237 18.8983 0.0525473 18.7126 0.0375772C18.6412 0.0232724 18.5623 0.0214398 18.4822 0.0314198C12.52 -0.0291259 6.52548 -0.0208081 0.569157 0.225866C0.391757 0.233184 4.6293e-05 0.382389 4.6293e-05 0.618417C-0.00011631 8.95027 -0.00987247 17.2854 0.377123 25.61C0.383465 25.7479 0.60119 25.8081 0.701028 25.8137C4.96026 26.0479 9.23575 26.0579 13.4972 25.8626C16.3041 25.7341 18.235 23.9713 18.9573 21.2585C19.75 18.282 19.4672 14.919 19.375 11.8691ZM18.1968 20.0734C18.0233 21.3254 17.6796 22.6163 16.9072 23.6281C16.0996 24.6858 14.8953 25.079 13.6397 25.1735C13.5548 25.18 13.4696 25.1852 13.3844 25.1892C9.38957 25.3723 5.3814 25.352 1.38835 25.1426C1.01875 17.0642 1.02656 8.97472 1.02705 0.889208C1.0316 0.889042 1.03632 0.888877 1.04087 0.88871C1.1051 0.886216 1.16933 0.884053 1.23355 0.881558C1.86494 0.857606 2.49666 0.835314 3.12869 0.816518C3.17747 0.815021 3.22626 0.813859 3.27504 0.812528C3.93748 0.793067 4.59993 0.775603 5.26302 0.761132C5.28205 0.760633 5.30107 0.760465 5.3201 0.760132C6.71393 0.730192 8.10874 0.709898 9.50388 0.698919C9.57477 0.69842 9.64536 0.698315 9.71625 0.697816C10.3476 0.693159 10.9792 0.689501 11.6106 0.688004C13.733 0.683014 15.8548 0.694764 17.9721 0.715889C17.9896 4.15518 18.202 7.59148 18.3301 11.0273C18.4414 14.0145 18.608 17.1046 18.1968 20.0734Z"
        fill="#1F1E21" />
    <path
        d="M3.04579 2.95498C3.17262 6.09603 3.18514 9.24042 3.27002 12.3826C7.66128 12.3086 12.0509 12.1094 16.4433 12.1361C16.4132 10.3535 16.2088 8.5794 16.1934 6.7948C16.1831 5.60767 16.1911 4.41556 16.0996 3.23143C16.0623 2.75089 15.7879 2.88778 15.4105 2.88861C15.1973 2.88894 14.9841 2.88944 14.7708 2.89011C14.2389 2.8921 13.707 2.89443 13.1753 2.89759C10.9436 2.9114 8.71186 2.93435 6.48013 2.93551C5.34516 2.93585 4.18255 2.87813 3.04579 2.95498ZM4.06222 7.93918C4.0601 6.64527 4.03344 5.35169 4.00515 4.05811C4.00271 3.94384 4.2536 3.90508 4.25653 4.03914C4.28466 5.33273 4.31133 6.62631 4.3136 7.92039C4.3136 8.03482 4.06238 8.07308 4.06222 7.93918ZM13.1958 11.0461C13.8752 11.0461 14.5545 11.0461 15.2339 11.0461C15.3705 10.378 15.1857 9.70382 15.2187 9.02768C15.2225 8.95382 15.47 8.8991 15.4656 8.99108C15.4309 9.69767 15.6373 10.3939 15.4656 11.0921C15.4509 11.1518 15.3402 11.1746 15.2919 11.1746C14.5597 11.1746 13.8275 11.1746 13.0953 11.1746C12.9283 11.1749 13.1129 11.0461 13.1958 11.0461Z"
        fill="white" />
    <path
        d="M16.9899 12.2012C16.9728 10.2403 16.7494 8.28899 16.7325 6.32608C16.7222 5.13612 16.7082 3.948 16.6165 2.76104C16.5873 2.38313 14.5874 2.5947 14.3479 2.59587C11.904 2.60618 9.46019 2.63313 7.01611 2.63828C5.79902 2.64094 4.55754 2.58206 3.33721 2.65209C3.16517 2.66207 2.99346 2.67454 2.82241 2.69034C2.71623 2.70016 2.50696 2.77002 2.51265 2.90824C2.6481 6.13613 2.65769 9.36767 2.74598 12.5969C2.74761 12.6574 2.82447 12.6806 2.92008 12.6749C2.95016 12.6724 2.98154 12.6673 3.01293 12.6594C3.01618 12.6594 3.01943 12.6594 3.02268 12.6593C3.02415 12.6589 3.02631 12.6583 3.02777 12.6579C6.98212 12.5921 10.935 12.4229 14.89 12.4084C14.9136 12.4084 14.9375 12.4086 14.9611 12.4086C15.4786 12.4069 15.9964 12.4073 16.5139 12.4116C16.5455 12.4242 16.5899 12.4279 16.6385 12.4249C16.6479 12.4241 16.6572 12.4234 16.6668 12.4219C16.6695 12.4216 16.6723 12.4211 16.6749 12.4207C16.8237 12.3976 16.9908 12.3154 16.9899 12.2012ZM13.1765 2.89826C13.7084 2.89493 14.2402 2.89261 14.772 2.89078C14.9851 2.89011 15.1985 2.88961 15.4116 2.88928C15.789 2.88845 16.0637 2.75156 16.1007 3.2321C16.1923 4.4164 16.1843 5.60851 16.1946 6.79548C16.2099 8.58008 16.4144 10.3544 16.4445 12.1368C12.0521 12.11 7.66245 12.3093 3.27119 12.3833C3.18631 9.24109 3.17379 6.0967 3.04696 2.95565C4.18372 2.8788 5.34633 2.93652 6.48147 2.93602C8.7132 2.93519 10.9448 2.91207 13.1765 2.89826Z"
        fill="#1F1E21" />
    <path
        d="M4.84162 19.6421C5.01967 19.6388 5.19642 19.627 5.37301 19.6117C5.3387 19.0954 5.3322 18.5764 5.32797 18.0593C5.327 17.9214 5.52147 17.8575 5.62993 17.8452C6.08879 17.7926 6.56018 17.8194 7.01791 17.7569C7.04929 17.4741 7.10571 16.927 6.87644 16.9214C6.42034 16.9101 5.96603 16.9375 5.51009 16.9457C5.47383 16.9463 5.34992 16.9342 5.35057 16.8716C5.35578 16.3909 5.36456 15.9052 5.3296 15.4255C5.31561 15.2339 5.47935 15.2256 5.33968 15.2239C5.23984 15.2226 5.13984 15.2218 5.04 15.2213C4.93512 15.2213 4.83057 15.2221 4.72585 15.2236C4.71821 15.7452 4.77398 16.2657 4.78504 16.7868C4.78813 16.9352 4.50113 17.0297 4.3491 17.0052C3.9956 17.0027 3.64633 17.0014 3.29511 17.0233C3.29283 17.3187 3.28486 17.9295 3.27478 17.9294C3.45397 17.9312 3.63316 17.931 3.81235 17.9267C4.07235 17.9207 4.33235 17.9134 4.59236 17.9029C4.63057 17.9014 4.75024 17.9147 4.75187 17.9769C4.7613 18.3321 4.77024 18.6872 4.77658 19.0423C4.77805 19.1058 4.73658 19.6441 4.84162 19.6421Z"
        fill="#205078" />
    <path
        d="M5.9116 19.6553C5.86997 19.141 5.86119 18.6235 5.85664 18.1074C5.86119 18.1071 5.86591 18.1067 5.87046 18.1064C5.87078 18.1064 5.87106 18.1066 5.87139 18.1066C6.12586 18.0896 6.38033 18.0823 6.63416 18.065C6.64407 18.0644 6.65421 18.0632 6.66429 18.0625C6.7277 18.058 6.79112 18.0525 6.85437 18.0462C6.86055 18.0455 6.86673 18.0449 6.87291 18.0444C7.01567 18.0294 7.15828 18.0091 7.30039 17.9792C7.36446 17.9657 7.52413 17.902 7.53031 17.8161C7.55682 17.454 7.56267 17.0919 7.51698 16.7317C7.50852 16.6651 7.40153 16.6615 7.35747 16.6576C6.9908 16.6252 6.63177 16.6277 6.26428 16.6422C6.25014 16.6427 6.2368 16.6438 6.22363 16.645C6.10672 16.6568 6.02591 16.6874 5.97323 16.6887C5.90558 16.6957 5.87794 16.6673 5.87875 16.5222C5.88168 16.0199 5.88818 15.5113 5.83127 15.0119C5.82396 14.9475 5.71501 14.9387 5.67176 14.9379C5.30476 14.9314 4.93744 14.9288 4.57077 14.9464C4.4737 14.953 4.21906 14.9971 4.21321 15.1279C4.18898 15.6581 4.24101 16.1861 4.26248 16.7153C4.25793 16.7153 4.25375 16.7161 4.2492 16.7161C4.11895 16.7162 3.98903 16.7174 3.85928 16.7204C3.84985 16.7205 3.83987 16.7212 3.8306 16.7213C3.72345 16.7242 3.61629 16.7287 3.50914 16.7345C3.48393 16.7358 3.45889 16.737 3.43369 16.7385C3.31743 16.7456 3.201 16.7551 3.08458 16.7676C3.08393 16.7676 3.08312 16.7677 3.0823 16.7677C3.00637 16.7761 2.78539 16.8366 2.78084 16.9456C2.76425 17.3473 2.7701 17.7453 2.78978 18.1468C2.79303 18.2115 2.90962 18.2193 2.94913 18.2208C3.23596 18.2318 3.52231 18.2253 3.80914 18.2188C3.92345 18.2157 4.03776 18.2124 4.15207 18.2084C4.18752 18.2072 4.21516 18.2065 4.23825 18.2062C4.25288 18.7564 4.26719 19.3068 4.26963 19.8572C4.26996 19.9213 4.39207 19.9301 4.42931 19.9313C4.62915 19.9379 4.8272 19.9344 5.02476 19.9231C5.2194 19.9116 5.41371 19.893 5.60916 19.8692C5.70981 19.8572 5.92266 19.7924 5.9116 19.6553ZM4.75077 17.9818C4.74915 17.9196 4.62947 17.9063 4.59126 17.9078C4.33126 17.9183 4.07126 17.9254 3.81125 17.9316C3.6319 17.9357 3.45288 17.9359 3.27369 17.9342C3.28377 17.9344 3.29174 17.3236 3.29401 17.0282C3.64523 17.0061 3.99451 17.0076 4.348 17.0101C4.50004 17.0345 4.78703 16.9401 4.78394 16.7917C4.77289 16.2704 4.71711 15.7499 4.72476 15.2285C4.82947 15.227 4.93403 15.2262 5.03891 15.2262C5.13875 15.2267 5.23875 15.2275 5.33859 15.2288C5.47842 15.2305 5.31468 15.2388 5.3285 15.4304C5.36346 15.9101 5.35485 16.396 5.34948 16.8765C5.34883 16.9391 5.47273 16.9512 5.50899 16.9505C5.96493 16.9424 6.41924 16.9149 6.87535 16.9263C7.10462 16.9319 7.04819 17.479 7.01681 17.7618C6.55908 17.8243 6.0877 17.7975 5.62883 17.8501C5.52038 17.8624 5.32574 17.9263 5.32688 18.0642C5.33094 18.5813 5.33761 19.1003 5.37192 19.6166C5.19533 19.6319 5.01858 19.6435 4.84053 19.647C4.73549 19.649 4.77679 19.1107 4.77565 19.0474C4.76915 18.6921 4.7602 18.3369 4.75077 17.9818Z"
        fill="#1F1E21" />
    <path
        d="M16.7147 15.708C16.5311 15.1917 16.2326 15.0012 15.6588 15.027C15.1767 15.0741 14.8568 15.5563 14.8324 16.1544C14.8101 16.6943 15.3835 17.2344 16.0263 17.0847C16.7591 16.9139 16.8983 16.1775 16.7147 15.708Z"
        fill="#1F1E21" />
    <path
        d="M15.0245 18.434C14.8408 17.9174 14.5421 17.7266 13.9682 17.7529C13.4864 17.7999 13.1664 18.282 13.1422 18.8799C13.1196 19.42 13.6929 19.9603 14.3357 19.8106C15.0687 19.6396 15.2081 18.9037 15.0245 18.434Z"
        fill="#1F1E21" />
    <path
        d="M12.8096 23.6079C12.7582 23.3829 12.5126 23.3978 12.327 23.3857C12.0042 23.3646 11.6741 23.3616 11.3448 23.374C11.3159 23.3752 11.2875 23.3772 11.2587 23.3785C11.128 23.3845 10.9972 23.3917 10.8673 23.4025C10.7049 23.4161 10.5433 23.4333 10.3839 23.4537C10.3655 23.454 10.3434 23.4569 10.3151 23.4657C10.1515 23.5169 10.0267 23.5665 10.0059 23.7591C9.97756 24.0211 10.3984 23.967 10.5265 23.9669C10.8951 23.9665 11.2638 23.9647 11.6322 23.9567C11.8026 23.9531 12.0034 23.9693 12.1946 23.9612C12.3047 23.9559 12.4112 23.9424 12.5061 23.912C12.627 23.8732 12.851 23.789 12.8096 23.6079Z"
        fill="#1F1E21" />
    <path
        d="M9.4403 23.6079C9.38892 23.3827 9.14355 23.3979 8.95786 23.3857C8.63493 23.3646 8.30501 23.3616 7.97557 23.3739C7.95037 23.3749 7.9249 23.3766 7.89986 23.3777C7.76538 23.3837 7.63091 23.3912 7.49725 23.4022C7.33514 23.4157 7.17384 23.4328 7.01481 23.4531C6.99627 23.4533 6.97383 23.4561 6.94505 23.4652C6.78164 23.5166 6.65659 23.5662 6.63578 23.7588C6.60765 24.0206 7.0283 23.9666 7.1566 23.9666C7.52506 23.9664 7.89368 23.9646 8.26214 23.9564C8.43254 23.9529 8.63369 23.9687 8.82507 23.9604C8.93515 23.9551 9.04166 23.9418 9.13646 23.9112C9.25727 23.8726 9.4816 23.7889 9.4403 23.6079Z"
        fill="#1F1E21" />
    <path
        d="M15.2937 11.1759C15.3418 11.1759 15.4527 11.1531 15.4674 11.0934C15.6391 10.3951 15.4327 9.69903 15.4674 8.99244C15.4719 8.90029 15.2243 8.95518 15.2205 9.02904C15.1874 9.70518 15.3723 10.3793 15.2357 11.0475C14.5563 11.0475 13.877 11.0475 13.1976 11.0475C13.1147 11.0475 12.9301 11.1761 13.0971 11.1761C13.8293 11.1759 14.5615 11.1759 15.2937 11.1759Z"
        fill="#1F1E21" />
    <path
        d="M4.00582 4.05499C4.03395 5.34857 4.06062 6.64215 4.06289 7.93607C4.06322 8.06997 4.31444 8.03171 4.31428 7.9171C4.31216 6.62302 4.28533 5.32944 4.2572 4.03585C4.25428 3.90196 4.00338 3.94071 4.00582 4.05499Z"
        fill="#1F1E21" />
    <path
        d="M17.9722 0.710371C15.8549 0.689413 13.7333 0.677599 11.6108 0.682589C10.9794 0.684087 10.3479 0.687583 9.71649 0.692407C9.6456 0.692906 9.57487 0.692903 9.50397 0.693402C8.109 0.704546 6.71403 0.724508 5.3202 0.754615C5.30117 0.755114 5.28214 0.755277 5.26312 0.755609C4.60019 0.770081 3.93742 0.787383 3.27513 0.80701C3.22635 0.808341 3.17757 0.809503 3.12879 0.811C2.49659 0.829962 1.86504 0.852083 1.23365 0.876035C1.16942 0.87853 1.10519 0.880029 1.04097 0.88269C1.04048 8.96787 1.03284 17.0577 1.40243 25.1361C5.39564 25.3455 9.40365 25.3656 13.3983 25.1826C13.479 25.179 13.5596 25.174 13.6399 25.168C14.8956 25.0735 16.0998 24.6803 16.9075 23.6226C17.6798 22.6108 18.0234 21.3199 18.1971 20.0679C18.6083 17.0991 18.4416 14.009 18.3301 11.0219C18.2021 7.5858 17.9899 4.1495 17.9722 0.710371ZM14.8322 16.1417C14.8565 15.5434 15.1764 15.0614 15.6585 15.0143C16.2323 14.9885 16.5309 15.179 16.7144 15.6953C16.898 16.1648 16.7588 16.9014 16.026 17.072C15.3831 17.2217 14.8099 16.6816 14.8322 16.1417ZM13.1429 18.8784C13.1671 18.2803 13.4871 17.7984 13.9689 17.7513C14.5427 17.725 14.8414 17.9157 15.0252 18.4325C15.2087 18.9022 15.0692 19.638 14.3364 19.809C13.6936 19.9587 13.1203 19.4185 13.1429 18.8784ZM7.03011 2.63177C9.47404 2.62661 11.918 2.59967 14.3619 2.58936C14.6017 2.58819 16.6013 2.37645 16.6305 2.75469C16.7224 3.94149 16.7362 5.12978 16.7465 6.31957C16.7634 8.28248 16.9866 10.2337 17.0039 12.1948C17.005 12.3126 16.8271 12.3953 16.6749 12.4151C16.6722 12.4154 16.6694 12.4153 16.6668 12.4156C16.6572 12.4168 16.6478 12.418 16.6385 12.4186C16.5901 12.4216 16.5457 12.4181 16.514 12.4053C15.9962 12.401 15.4787 12.4007 14.9611 12.4023C14.9374 12.4023 14.9136 12.4022 14.89 12.4022C10.935 12.4166 6.98216 12.5858 3.02781 12.6517C3.02635 12.652 3.02472 12.6522 3.02326 12.6525C2.9883 12.6608 2.95351 12.6663 2.92066 12.6681C2.82505 12.674 2.74781 12.6512 2.74619 12.5906C2.65789 9.36142 2.6483 6.12987 2.51285 2.90199C2.50716 2.76377 2.71643 2.69374 2.82261 2.68409C2.99367 2.66829 3.1652 2.65655 3.33723 2.64657C4.56212 2.57522 5.80831 2.63443 7.03011 2.63177ZM5.6241 19.8561C5.4241 19.8804 5.22507 19.8995 5.02572 19.9108C4.82816 19.922 4.63011 19.9256 4.43027 19.919C4.39303 19.9177 4.27092 19.9088 4.27059 19.845C4.26799 19.2946 4.25368 18.7442 4.23921 18.1939C4.21596 18.1943 4.18831 18.1949 4.15303 18.1961C4.03872 18.1999 3.92441 18.2034 3.8101 18.2066C3.52327 18.2131 3.23692 18.2195 2.95009 18.2086C2.91058 18.2069 2.79383 18.1991 2.79074 18.1346C2.77106 17.733 2.76537 17.335 2.7818 16.9333C2.78619 16.8243 3.00733 16.7636 3.08326 16.7555C3.08391 16.7555 3.08473 16.7553 3.08554 16.7553C3.20213 16.7427 3.31855 16.7335 3.43465 16.7262C3.45985 16.7245 3.48489 16.7234 3.5101 16.7222C3.61725 16.7162 3.72424 16.7117 3.83156 16.7091C3.84099 16.7089 3.85026 16.7086 3.85969 16.7084C3.98945 16.7052 4.11937 16.7034 4.24962 16.7032C4.25417 16.7032 4.25888 16.7031 4.26344 16.7031C4.24197 16.1738 4.18994 15.6457 4.21417 15.1156C4.22002 14.9848 4.47481 14.941 4.57188 14.9343C4.57497 14.9342 4.57936 14.9337 4.58213 14.9335C4.94993 14.9155 5.31856 14.9184 5.68669 14.9248C5.72978 14.9255 5.83872 14.9345 5.84604 14.9989C5.90328 15.4982 5.89661 16.0068 5.89368 16.5092C5.89303 16.6441 5.91661 16.6782 5.97433 16.6767C6.02686 16.6753 6.10752 16.6447 6.22459 16.6327C6.24199 16.6309 6.2602 16.6296 6.27923 16.6289C6.64671 16.6146 7.00574 16.6119 7.37241 16.6445C7.41647 16.6484 7.52347 16.652 7.53176 16.7185C7.57745 17.0788 7.5716 17.4411 7.54509 17.8032C7.53891 17.8892 7.37924 17.9527 7.31517 17.9662C7.1685 17.9972 7.02135 18.0173 6.87387 18.0323C6.86769 18.0328 6.86151 18.0334 6.85533 18.0341C6.79208 18.0404 6.72866 18.0457 6.66525 18.0504C6.65517 18.0511 6.64508 18.0521 6.63517 18.0527C6.38134 18.07 6.12687 18.077 5.8724 18.0943C5.87207 18.0943 5.87175 18.0943 5.87142 18.0943C5.87614 18.6104 5.88491 19.1279 5.92654 19.6422C5.93711 19.7789 5.72426 19.8438 5.6241 19.8561ZM9.1508 23.9077C9.05177 23.9394 8.94039 23.9529 8.82543 23.9579C8.63421 23.9662 8.43291 23.9503 8.2625 23.9539C7.89404 23.9621 7.52542 23.9639 7.15696 23.9641C7.02866 23.9641 6.60801 24.0181 6.63614 23.7563C6.65695 23.5637 6.782 23.5141 6.94541 23.4627C6.97419 23.4536 6.99647 23.4508 7.01517 23.4506C7.17436 23.4303 7.3355 23.4132 7.49761 23.3997C7.63127 23.3886 7.76575 23.3814 7.90022 23.3752C7.92542 23.3741 7.95046 23.3716 7.9755 23.3708C8.30965 23.3578 8.64429 23.3601 8.97161 23.3816C9.1573 23.3937 9.40283 23.3786 9.45405 23.6038C9.49535 23.7844 9.27145 23.8688 9.1508 23.9077ZM12.5206 23.9077C12.4217 23.9393 12.3102 23.9529 12.1952 23.9579C12.004 23.9661 11.8029 23.9503 11.6324 23.9541C11.264 23.9621 10.8954 23.9639 10.5267 23.9642C10.3986 23.9644 9.9778 24.0185 10.0061 23.7565C10.0269 23.564 10.1518 23.5143 10.3154 23.4631C10.3437 23.4541 10.3658 23.4514 10.3841 23.4511C10.5435 23.4306 10.7051 23.4135 10.8676 23.3999C10.9975 23.3891 11.1282 23.3822 11.2589 23.3759C11.2877 23.3746 11.3165 23.3719 11.3453 23.3708C11.6793 23.3576 12.0139 23.3599 12.3412 23.3814C12.5269 23.3935 12.7723 23.3786 12.8238 23.6036C12.8655 23.7846 12.6414 23.8688 12.5206 23.9077Z"
        fill="#EA4325" />
</svg>